# AST/ASF file generated using VICON BodyLanguage
# -----------------------------------------------
:version 1.10
:name VICON
:units
  mass 1.0
  length 0.45
  angle deg
:documentation
   .ast/.asf automatically generated from VICON data using
   VICON BodyBuilder and BodyLanguage model FoxedUp or BRILLIANT.MOD
:root
   order TX TY TZ RX RY RZ
   axis XYZ
   position 0 0 0  
   orientation 0 0 0 
:bonedata
  begin
     id 1 
     name lhipjoint
     direction 0.611804 -0.747784 0.257906 
     length 2.29243 
     axis 0 0 0  XYZ
  end
  begin
     id 2 
     name lfemur
     direction 0.34202 -0.939693 0  
     length 7.31159  
     axis 0 0 20  XYZ
    dof rx ry rz
    limits (-160.0 20.0)
           (-70.0 70.0)
           (-60.0 70.0)
  end
  begin
     id 3 
     name ltibia
     direction 0.34202 -0.939693 0   
     length 7.33391   
     axis 0 0 20   XYZ
    dof rx
    limits (-10.0 170.0)
  end
  begin
     id 4 
     name lfoot
     direction 0.122263 -0.335914 0.933924   
     length 1.76083   
     axis -90 7.62852e-016 20   XYZ
    dof rx rz
    limits (-45.0 90.0)
           (-70.0 20.0)
  end
  begin
     id 5 
     name ltoes
     direction 1.53533e-011 -4.2177e-011 1   
     length 0.879206   
     axis -90 7.62852e-016 20   XYZ
    dof rx
    limits (-90.0 20.0)
  end
  begin
     id 6 
     name rhipjoint
     direction -0.646469 -0.721248 0.248754   
     length 2.37677  
     axis 0 0 0  XYZ 
  end
  begin
     id 7 
     name rfemur
     direction -0.34202 -0.939693 0   
     length 7.18623   
     axis 0 0 -20   XYZ
    dof rx ry rz
    limits (-160.0 20.0)
           (-70.0 70.0)
           (-70.0 60.0)
  end
  begin
     id 8 
     name rtibia
     direction -0.34202 -0.939693 0   
     length 7.36567   
     axis 0 0 -20   XYZ
    dof rx
    limits (-10.0 170.0)
 end
 begin
     id 9 
     name rfoot
     direction -0.126681 -0.348054 0.928876   
     length 1.71902  
     axis -90 -7.62852e-016 -20   XYZ
    dof rx rz
    limits (-45.0 90.0)
           (-20.0 70.0)
  end
  begin
     id 10 
     name rtoes
     direction -1.53551e-011 -4.21898e-011 1   
     length 0.857792   
     axis -90 -7.62852e-016 -20   XYZ
    dof rx
    limits (-90.0 20.0)
  end
  begin
     id 11 
     name lowerback
     direction 0.0106509 0.999778 0.0181844   
     length 2.07668   
     axis 0 0 0   XYZ
    dof rx ry rz
    limits (-20.0 45.0)
           (-30.0 30.0)
           (-30.0 30.0)
  end
  begin
     id 12 
     name upperback
     direction -0.00456018 0.999989 -0.000590935   
     length 2.08011   
     axis 0 0 0   XYZ
    dof rx ry rz
    limits (-20.0 45.0)
           (-30.0 30.0)
           (-30.0 30.0)
  end
  begin
     id 13 
     name thorax
     direction -0.00910382 0.999916 -0.00923765   
     length 2.07397   
     axis 0 0 0   XYZ
    dof rx ry rz
    limits (-20.0 45.0)
           (-30.0 30.0)
           (-30.0 30.0)
  end
  begin
     id 14 
     name lowerneck
     direction 0.00171967 0.99778 0.0665733   
     length 1.67556   
     axis 0 0 0   XYZ
    dof rx ry rz
    limits (-20.0 45.0)
           (-30.0 30.0)
           (-30.0 30.0)
  end
  begin
     id 15 
     name upperneck
     direction -0.0143166 0.991302 -0.130828   
     length 1.68462   
     axis 0 0 0   XYZ
    dof rx ry rz
    limits (-20.0 45.0)
           (-30.0 30.0)
           (-30.0 30.0)
  end
  begin
     id 16
     name head
     direction -0.00606378 0.998665 -0.0512995  
     length 1.69269  
     axis 0 0 0   XYZ
    dof rx ry rz
    limits (-20.0 45.0)
           (-30.0 30.0)
           (-30.0 30.0)
  end
  begin
     id 17 
     name lclavicle
     direction 0.9638 0.179341 0.197297  
     length 4.12888  
     axis 0 0 0   XYZ
    dof ry rz
    limits (-20.0 10.0)
           (0.0 20.0)
  end
  begin
     id 18 
     name lhumerus
     direction 1 -4.48972e-011 -2.47351e-027   
     length 5.01834   
     axis -180 -30 -90   XYZ
    dof rx ry rz
    limits (-60.0 90.0)
           (-90.0 90.0)
           (-90.0 90.0)
  end
  begin
     id 19
     name lradius
     direction 1 -4.48965e-011 1.51591e-026   
     length 3.4869   
     axis -180 -30 -90   XYZ
    dof rx
    limits (-10.0 170.0)
  end
  begin
     id 20
     name lwrist
     direction 1 -4.48957e-011 2.70032e-026   
     length 1.74345   
     axis -1.81515e-014 90 90   XYZ
    dof ry
    limits (-180.0 0.0)
 end
  begin
     id 21 
     name lhand
     direction 1 -4.48951e-011 5.40064e-026   
     length 0.76799   
     axis -3.44607e-014 90 90   XYZ
    dof rx rz
    limits (-90.0 90.0)
           (-45.0 45.0)
  end
  begin
     id 22 
     name lfingers
     direction 1 -4.48971e-011 1.08013e-025   
     length 0.619174   
     axis -6.89214e-014 90 90   XYZ
    dof rx
    limits (0.0 90.0)
  end
  begin
     id 23
     name lthumb
     direction 0.707107 -6.34931e-011 0.707107   
     length 0.889013   
     axis -90 45 2.85299e-015   XYZ
    dof rx rz
    limits (-45.0 45.0)
           (-45.0 45.0)
  end
  begin
     id 24 
     name rclavicle
     direction -0.961409 0.252588 0.109054   
     length 4.04305  
     axis 0 0 0   XYZ 
    dof ry rz
    limits (-10.0 20.0)
           (-20.0 0.0)
  end
  begin
     id 25 
     name rhumerus
     direction -1 -4.4897e-011 1.33872e-017  
     length 4.70164   
     axis -180 30 90   XYZ
    dof rx ry rz
    limits (-90.0 60.0)
           (-90.0 90.0)
           (-90.0 90.0)
  end
  begin
     id 26 
     name rradius
     direction -1 -4.48954e-011 1.83844e-026   
     length 3.49911   
     axis -180 30 90   XYZ
    dof rx
    limits (-10.0 170.0)
  end
  begin
     id 27 
     name rwrist
     direction -1 -4.49008e-011 2.70032e-026   
     length 1.74955   
     axis -1.81515e-014 -90 -90   XYZ
    dof ry
    limits (-180.0 0.0)
  end
  begin
     id 28
     name rhand
     direction -1 -4.48916e-011 5.40064e-026   
     length 0.739335   
     axis -3.44607e-014 -90 -90   XYZ
    dof rx rz
    limits (-90.0 90.0)
           (-45.0 45.0)
  end
  begin
     id 29
     name rfingers
     direction -1 -4.48987e-011 1.08013e-025   
     length 0.596071   
     axis -6.89214e-014 -90 -90   XYZ
    dof rx
    limits (0.0 90.0)
  end
  begin
     id 30
     name rthumb
     direction -0.707107 -6.34935e-011 0.707107   
     length 0.855843   
     axis -90 -45 -2.85299e-015   XYZ
    dof rx rz
    limits (-45.0 45.0)
           (-45.0 45.0)
  end
:hierarchy
  begin
    root lhipjoint rhipjoint lowerback
    lhipjoint lfemur
    lfemur ltibia
    ltibia lfoot
    lfoot ltoes
    rhipjoint rfemur
    rfemur rtibia
    rtibia rfoot
    rfoot rtoes
    lowerback upperback
    upperback thorax
    thorax lowerneck lclavicle rclavicle
    lowerneck upperneck
    upperneck head
    lclavicle lhumerus
    lhumerus lradius
    lradius lwrist
    lwrist lhand lthumb
    lhand lfingers
    rclavicle rhumerus
    rhumerus rradius
    rradius rwrist
    rwrist rhand rthumb
    rhand rfingers
  end

#!OML:ASF I:\salsa\salsa 7_09\Patient 1\Session 1\dancermale.ASF
:FULLY-SPECIFIED
:DEGREES
286
root 4.41179 17.2588 -1.22694 -891.035 104.559 -540.913
lowerback -6.02416 3.76096 -1.51154
upperback -0.43072 5.2478 -3.08364
thorax 3.08046 2.62826 -1.87916
lowerneck -8.29399 -0.428003 -0.776285
upperneck 22.9029 -0.0375383 0.230487
head 8.47509 0.118057 0.231895
rclavicle -6.65929e-015 -4.77083e-015
rhumerus -32.9537 41.434 -116.833
rradius 84.3982
rwrist 25.144
rhand 139.135 201.575
rfingers 7.12502
rthumb -13.802 -7.94707
lclavicle -6.65929e-015 -4.77083e-015
lhumerus -12.2866 0.747517 85.6621
lradius 88.2999
lwrist 82.3804
lhand -18.3537 53.1374
lfingers 7.12502
lthumb 7.92899 442.969
rfemur -19.5772 -18.1202 24.9798
rtibia 54.0283
rfoot -11.7056 0.927255
rtoes -17.6932
lfemur -27.8616 8.13671 -27.965
ltibia 33.0906
lfoot -12.3853 7.18047
ltoes 0.690133
287
root 4.47781 17.2303 -1.21782 -891.244 104.268 -540.818
lowerback -5.57869 3.61249 -1.49021
upperback -0.37285 5.03199 -3.02997
thorax 2.88236 2.52146 -1.88253
lowerneck -8.11008 -0.481009 -0.762426
upperneck 23.0038 -0.0855268 0.145354
head 8.47565 0.0917097 0.197041
rclavicle 3.29983e-014 1.03368e-014
rhumerus -33.6152 40.6755 -116.735
rradius 84.0197
rwrist 24.9718
rhand 138.938 201.556
rfingers 7.12502
rthumb -13.9918 -7.95355
lclavicle 3.29983e-014 1.03368e-014
lhumerus -12.6469 0.791589 86.3015
lradius 87.9424
lwrist 81.8235
lhand -18.2454 53.132
lfingers 7.12502
lthumb 8.03348 442.959
rfemur -20.2891 -17.6209 24.3418
rtibia 57.3326
rfoot -12.5298 -0.798868
rtoes -18.9617
lfemur -28.1647 8.00858 -27.944
ltibia 34.7432
lfoot -12.7556 6.9144
ltoes 0.0857329
288
root 4.54118 17.2053 -1.2084 -891.231 103.886 -540.514
lowerback -5.23409 3.45668 -1.49872
upperback -0.300635 4.81432 -3.01059
thorax 2.75611 2.41337 -1.89529
lowerneck -7.94417 -0.551153 -0.730918
upperneck 23.2202 -0.179817 0.172953
head 8.51902 0.0582209 0.193162
rclavicle -1.65985e-014 -5.56597e-015
rhumerus -34.3697 39.6157 -116.594
rradius 83.7317
rwrist 24.7112
rhand 138.782 201.149
rfingers 7.12502
rthumb -14.1421 -8.34987
lclavicle -1.65985e-014 -5.56597e-015
lhumerus -13.0297 0.604575 86.9507
lradius 87.4213
lwrist 82.004
lhand -18.7521 52.7905
lfingers 7.12502
lthumb 7.54445 442.636
rfemur -20.9419 -17.0453 23.6645
rtibia 60.47
rfoot -13.013 -2.0391
rtoes -17.8606
lfemur -28.5638 7.98811 -27.9847
ltibia 36.5388
lfoot -12.7719 6.43566
ltoes -0.494431
289
root 4.60011 17.1843 -1.19829 -891.495 103.458 -540.641
lowerback -5.1258 3.29327 -1.43589
upperback -0.21777 4.58913 -2.95614
thorax 2.77564 2.30102 -1.89528
lowerneck -7.79768 -0.593244 -0.706991
upperneck 23.4016 -0.242054 0.227939
head 8.55403 0.0412486 0.202719
rclavicle 1.33186e-014 -2.78299e-014
rhumerus -35.0667 38.3518 -116.298
rradius 83.4905
rwrist 24.4825
rhand 138.826 200.831
rfingers 7.12502
rthumb -14.0989 -8.67031
lclavicle 1.33186e-014 -2.78299e-014
lhumerus -13.2711 0.547102 87.72
lradius 86.4565
lwrist 82.3406
lhand -19.1193 52.2674
lfingers 7.12502
lthumb 7.18995 442.125
rfemur -21.7017 -16.2613 23.2118
rtibia 63.3789
rfoot -13.0995 -3.08663
rtoes -13.6548
lfemur -29.1738 8.0764 -27.9179
ltibia 38.3796
lfoot -12.9191 5.82621
ltoes -1.56503
290
root 4.6519 17.1659 -1.19345 -891.831 103.043 -541.038
lowerback -5.04706 3.17176 -1.2515
upperback -0.330192 4.40968 -2.93725
thorax 2.62326 2.21433 -2.00024
lowerneck -7.36129 -0.64825 -0.472824
upperneck 23.5555 -0.318323 0.145886
head 8.52518 0.0258433 0.12981
rclavicle -2.25621e-014 2.54444e-014
rhumerus -35.9498 36.6795 -116.03
rradius 83.342
rwrist 24.4254
rhand 138.71 200.611
rfingers 7.12502
rthumb -14.2109 -8.88258
lclavicle -2.25621e-014 2.54444e-014
lhumerus -13.7607 0.601145 88.6026
lradius 85.27
lwrist 82.0727
lhand -19.0912 52.3228
lfingers 7.12502
lthumb 7.2171 442.18
rfemur -22.7916 -15.4494 22.9961
rtibia 66.2852
rfoot -12.7064 -4.59535
rtoes -10.5676
lfemur -29.9677 8.19128 -27.8304
ltibia 40.0423
lfoot -13.2551 5.26107
ltoes -1.97728
291
root 4.70118 17.1503 -1.19082 -891.858 102.715 -541.036
lowerback -4.89243 3.07881 -1.19558
upperback -0.458555 4.27287 -2.9023
thorax 2.40179 2.14712 -2.0186
lowerneck -6.91583 -0.728936 -0.338507
upperneck 23.8129 -0.422019 0.136133
head 8.53041 -0.00122851 0.0963175
rclavicle -2.32578e-014 -6.36111e-015
rhumerus -37.024 34.9549 -115.666
rradius 83.3822
rwrist 24.2966
rhand 138.284 200.276
rfingers 7.12502
rthumb -14.6213 -9.18873
lclavicle -2.32578e-014 -6.36111e-015
lhumerus -14.6531 0.560251 89.5801
lradius 84.336
lwrist 82.2912
lhand -20.3506 52.2546
lfingers 7.12502
lthumb 6.00137 442.15
rfemur -23.8009 -14.6402 22.6619
rtibia 69.0176
rfoot -11.8764 -6.15652
rtoes -7.77449
lfemur -30.434 8.3441 -27.8554
ltibia 41.219
lfoot -13.5751 4.72914
ltoes -2.12129
292
root 4.74675 17.136 -1.18796 -891.874 102.418 -540.799
lowerback -4.77477 2.97323 -1.28601
upperback -0.300602 4.13175 -2.76356
thorax 2.4778 2.07354 -1.83736
lowerneck -6.91544 -0.797724 -0.543015
upperneck 24.1271 -0.511709 0.326434
head 8.63957 -0.0360418 0.188207
rclavicle 8.05078e-015 -1.90833e-014
rhumerus -37.7544 33.4597 -114.81
rradius 83.4628
rwrist 24.0886
rhand 138.001 200.107
rfingers 7.12502
rthumb -14.8944 -9.3375
lclavicle 8.05078e-015 -1.90833e-014
lhumerus -15.3757 0.755591 90.6602
lradius 83.2475
lwrist 82.1954
lhand -20.8674 51.922
lfingers 7.12502
lthumb 5.50236 441.831
rfemur -24.5183 -13.7565 22.1575
rtibia 71.5048
rfoot -11.2649 -7.11396
rtoes -2.94527
lfemur -30.3811 8.44524 -27.906
ltibia 41.9407
lfoot -13.6483 4.30321
ltoes -2.45394
293
root 4.78621 17.1212 -1.18826 -891.866 102.058 -540.457
lowerback -4.53685 2.86724 -1.28192
upperback -0.123967 3.9842 -2.68163
thorax 2.51716 1.99865 -1.7732
lowerneck -6.99848 -0.834273 -0.664995
upperneck 24.464 -0.571189 0.518671
head 8.77243 -0.0492122 0.269809
rclavicle 1.78906e-015 3.18055e-015
rhumerus -38.4815 31.614 -113.927
rradius 83.6423
rwrist 24.2419
rhand 137.688 200.105
rfingers 7.12502
rthumb -15.1957 -9.3165
lclavicle 1.78906e-015 3.18055e-015
lhumerus -15.9676 0.913438 91.6545
lradius 81.7368
lwrist 81.9652
lhand -20.4643 51.1938
lfingers 7.12502
lthumb 5.89153 441.092
rfemur -25.21 -12.9349 21.649
rtibia 73.7737
rfoot -10.8006 -7.77603
rtoes 1.83844
lfemur -30.0468 8.18579 -27.9367
ltibia 42.3473
lfoot -13.4663 4.13445
ltoes -2.20819
294
root 4.82208 17.1081 -1.18752 -891.827 101.804 -540.128
lowerback -4.19513 2.8115 -1.19479
upperback -0.105822 3.89579 -2.6848
thorax 2.34824 1.95621 -1.84835
lowerneck -6.89032 -0.834734 -0.553756
upperneck 24.8002 -0.581908 0.584906
head 8.86827 -0.0280664 0.274552
rclavicle 3.40916e-014 -1.27222e-014
rhumerus -39.4438 29.4672 -113.207
rradius 83.9305
rwrist 24.3448
rhand 137.677 200.041
rfingers 7.12502
rthumb -15.2063 -9.38007
lclavicle 3.40916e-014 -1.27222e-014
lhumerus -16.7868 0.9447 92.4382
lradius 80.0505
lwrist 82.0428
lhand -20.0358 50.3474
lfingers 7.12502
lthumb 6.30526 440.234
rfemur -26.0049 -12.0707 21.2201
rtibia 75.6445
rfoot -10.1608 -8.33666
rtoes 4.13985
lfemur -29.6336 7.68826 -27.9351
ltibia 42.5321
lfoot -13.3876 4.23031
ltoes -1.80483
295
root 4.85432 17.098 -1.18401 -891.936 101.67 -539.976
lowerback -3.95814 2.77791 -1.15391
upperback -0.0460659 3.84193 -2.64165
thorax 2.27521 1.92943 -1.84077
lowerneck -6.72096 -0.819465 -0.469707
upperneck 24.8903 -0.546701 0.519086
head 8.86712 -0.00607404 0.242274
rclavicle -2.76311e-014 2.46493e-014
rhumerus -40.2837 27.3015 -112.352
rradius 84.2037
rwrist 24.2845
rhand 137.703 199.778
rfingers 7.12502
rthumb -15.1815 -9.64521
lclavicle -2.76311e-014 2.46493e-014
lhumerus -17.749 1.05614 93.0712
lradius 78.4442
lwrist 82.3022
lhand -19.9833 49.5409
lfingers 7.12502
lthumb 6.35596 439.426
rfemur -26.8808 -11.0766 20.8617
rtibia 77.2044
rfoot -9.81338 -8.53247
rtoes 4.27108
lfemur -29.2105 7.1299 -27.8833
ltibia 42.6499
lfoot -13.552 4.52442
ltoes -2.11627
296
root 4.88109 17.0893 -1.17857 -892.017 101.659 -539.825
lowerback -4.0195 2.72523 -1.26454
upperback 0.22121 3.77986 -2.4894
thorax 2.56561 1.8941 -1.61579
lowerneck -6.76031 -0.761391 -0.53687
upperneck 24.8541 -0.461435 0.531843
head 8.86174 0.0274525 0.265815
rclavicle 1.78906e-014 7.95139e-016
rhumerus -40.8252 25.297 -111.232
rradius 84.4677
rwrist 24.3479
rhand 137.553 199.631
rfingers 7.12502
rthumb -15.3259 -9.78096
lclavicle 1.78906e-014 7.95139e-016
lhumerus -18.461 1.40646 93.6244
lradius 76.8529
lwrist 82.5234
lhand -19.644 48.6644
lfingers 7.12502
lthumb 6.68348 438.539
rfemur -27.9049 -9.89133 20.5385
rtibia 78.5602
rfoot -9.7536 -8.5792
rtoes 3.42836
lfemur -28.8066 6.64261 -27.822
ltibia 42.6725
lfoot -13.8747 4.8008
ltoes -1.74167
297
root 4.90358 17.083 -1.17728 -892.068 101.67 -539.696
lowerback -4.15387 2.65572 -1.31718
upperback 0.488258 3.69509 -2.34543
thorax 2.9015 1.84751 -1.42986
lowerneck -6.80802 -0.697862 -0.617683
upperneck 24.8296 -0.372225 0.568742
head 8.86196 0.0639634 0.300287
rclavicle 2.10712e-014 9.54166e-015
rhumerus -41.2688 23.6421 -110.065
rradius 84.7175
rwrist 24.3928
rhand 137.296 199.555
rfingers 7.12502
rthumb -15.5736 -9.83798
lclavicle 2.10712e-014 9.54166e-015
lhumerus -19.2134 1.72908 94.0139
lradius 75.3678
lwrist 82.7527
lhand -19.1763 47.635
lfingers 7.12502
lthumb 7.13498 437.495
rfemur -29.0725 -8.66217 20.2265
rtibia 79.6458
rfoot -9.69109 -8.57492
rtoes 2.0763
lfemur -28.4492 6.29577 -27.7995
ltibia 42.5849
lfoot -14.3859 4.98981
ltoes 0.0752028
298
root 4.92111 17.0784 -1.18637 -891.795 101.349 -539.303
lowerback -4.19643 2.47322 -1.2088
upperback 0.631147 3.44863 -2.2855
thorax 3.07103 1.72493 -1.43947
lowerneck -6.76531 -0.636089 -0.507578
upperneck 24.9489 -0.270391 0.462547
head 8.89428 0.113829 0.255848
rclavicle 3.93594e-014 -1.59028e-015
rhumerus -41.7342 22.248 -108.991
rradius 84.9763
rwrist 24.4605
rhand 137.063 199.141
rfingers 7.12502
rthumb -15.798 -10.2346
lclavicle 3.93594e-014 -1.59028e-015
lhumerus -20.2414 2.10514 94.1054
lradius 74.0507
lwrist 82.561
lhand -17.8714 46.5797
lfingers 7.12502
lthumb 8.39442 436.393
rfemur -30.3454 -7.85539 19.8343
rtibia 80.3912
rfoot -9.72071 -8.64774
rtoes 2.94389
lfemur -28.2082 5.87963 -27.9159
ltibia 42.5072
lfoot -14.7988 5.11044
ltoes 0.992852
299
root 4.93482 17.0737 -1.19667 -891.129 100.904 -538.599
lowerback -4.51204 2.1745 -1.22211
upperback 0.883325 3.06159 -2.17387
thorax 3.49501 1.5285 -1.32556
lowerneck -6.75869 -0.520631 -0.22041
upperneck 24.9582 -0.068308 0.0972657
head 8.89465 0.19729 0.101755
rclavicle 2.79292e-014 -2.06736e-014
rhumerus -41.909 21.2569 -107.835
rradius 85.2488
rwrist 24.5788
rhand 136.965 198.744
rfingers 7.12502
rthumb -15.8918 -10.6243
lclavicle 2.79292e-014 -2.06736e-014
lhumerus -21.1492 2.60295 94.0916
lradius 72.9483
lwrist 82.4682
lhand -16.5807 45.8985
lfingers 7.12502
lthumb 9.63991 435.658
rfemur -31.7207 -7.25055 19.3865
rtibia 80.6847
rfoot -9.60524 -8.88569
rtoes 5.8468
lfemur -28.0262 5.52894 -28.1242
ltibia 42.3018
lfoot -14.8101 5.13148
ltoes 0.219212
